<?xml version="1.0" encoding="utf-8"?>
<!-- Generator: Adobe Illustrator 23.0.2, SVG Export Plug-In . SVG Version: 6.00 Build 0)  -->
<svg version="1.1"
	 id="svg1110" inkscape:version="1.2 (1:1.2+202206011327+fc4e4096c5)" sodipodi:docname="quest_logo.svg" xmlns:inkscape="http://www.inkscape.org/namespaces/inkscape" xmlns:sodipodi="http://sodipodi.sourceforge.net/DTD/sodipodi-0.dtd" xmlns:svg="http://www.w3.org/2000/svg"
	 xmlns="http://www.w3.org/2000/svg" xmlns:xlink="http://www.w3.org/1999/xlink" x="0px" y="0px" viewBox="0 0 841.1 223.1"
	 style="enable-background:new 0 0 841.1 223.1;" xml:space="preserve">
<style type="text/css">
	.st0{fill:#D76E2A;}
	.st1{fill:#DE932E;}
	.st2{fill:#EBB730;}
</style>
<path id="path2423" class="st0" d="M0,114.9l42.6-41.2h63l26.9,41.4l-39.4,49.3H22.6L0,114.9z"/>
<path id="path2452" class="st1" d="M105.8,168.6l39.2-48.2h64.4l35.6,47.7l-32.5,55.1h-75.3L105.8,168.6z"/>
<path id="path2454" d="M221.6,115.7l29-40.7h58.1l39.2,41.6l-22.3,46.2h-67.3L221.6,115.7z"/>
<path id="path2456" class="st1" d="M250,65.8h58.2L329,31.7L297.7,0h-54.3l-24.5,30.4L250,65.8z"/>
<path id="path2458" class="st2" d="M320.8,70.6l20.6-34.2h54.3l40.7,35.8l-16.3,40.3h-61.6L320.8,70.6z"/>
<g id="text4523" transform="matrix(3.9363373,0,0,3.9363373,-34.250759,-8.485043)">
	<path id="path7585" d="M133.9,45.2l3.6,3.9c1-0.8,1.8-1.9,2.4-3.1c0.6-1.3,0.8-2.6,0.8-4.1c0-1-0.1-1.9-0.3-2.8
		c-0.2-0.9-0.6-1.7-1-2.5c-0.9-1.5-2.1-2.7-3.6-3.5s-3.1-1.2-4.9-1.2c-1.3,0-2.6,0.2-3.8,0.7c-1.2,0.5-2.3,1.2-3.2,2.1
		s-1.6,2-2.1,3.2c-0.5,1.2-0.7,2.5-0.7,3.8c0,1.7,0.3,3.3,1,4.6c0.7,1.4,1.7,2.6,3.1,3.6c0.8,0.6,1.7,1,2.6,1.3
		c0.9,0.3,1.9,0.4,3,0.4c0.9,0,1.8-0.1,2.5-0.3c0.8-0.2,1.5-0.5,2.2-0.8l-5-5.4H133.9z M144.2,56.3h-3.6l-3.2-3.5
		c-1,0.6-2,1-3.2,1.3c-1.1,0.3-2.4,0.4-3.7,0.4c-1.4,0-2.7-0.2-3.9-0.6c-1.2-0.4-2.4-1-3.4-1.8c-1.7-1.3-3-2.8-3.9-4.5
		c-0.9-1.8-1.3-3.7-1.3-5.8c0-1.7,0.3-3.3,1-4.9c0.7-1.6,1.6-2.9,2.8-4.2c1.2-1.2,2.6-2.1,4.2-2.7c1.6-0.6,3.2-1,5-1
		c1.7,0,3.4,0.3,4.9,0.8s2.9,1.4,4.1,2.5c1.3,1.2,2.3,2.6,3,4.2c0.7,1.6,1,3.3,1,5.2c0,2-0.4,3.7-1.1,5.4c-0.7,1.6-1.8,3-3.2,4.1
		L144.2,56.3z"/>
	<path id="path7587" d="M148.5,29.6h2.9v15.1c0,2.5,0.5,4.3,1.6,5.4c1.1,1.2,2.7,1.7,4.9,1.7s3.9-0.6,4.9-1.7c1.1-1.2,1.6-3,1.6-5.4
		V29.6h2.9v15.1c0,3.3-0.8,5.8-2.4,7.4c-1.6,1.6-3.9,2.4-7.1,2.4c-3.1,0-5.5-0.8-7.1-2.4c-1.6-1.6-2.3-4.1-2.3-7.4V29.6z"/>
	<path id="path7589" d="M173.1,53.9V29.6h12.8v2.6H176v7h9.9v2.7H176v9.3h9.9v2.7H173.1z"/>
	<path id="path7591" d="M199.7,40.4c1.6,0.7,2.8,1.6,3.6,2.7c0.8,1.1,1.2,2.4,1.2,4c0,2.2-0.7,4-2.1,5.4c-1.4,1.4-3.3,2-5.7,2
		c-1.9,0-3.5-0.5-4.8-1.5c-1.3-1-2.2-2.4-2.6-4.2l2.6-1.3c0.4,1.5,0.9,2.6,1.7,3.4c0.8,0.8,1.8,1.1,3.1,1.1c1.5,0,2.6-0.4,3.5-1.2
		c0.9-0.8,1.3-1.9,1.3-3.3c0-1.1-0.3-2-0.9-2.8c-0.6-0.8-1.6-1.5-2.8-2l-3-1.3c-1.6-0.7-2.8-1.5-3.6-2.6c-0.8-1.1-1.2-2.3-1.2-3.8
		c0-1.7,0.6-3.2,1.9-4.3c1.3-1.1,2.9-1.7,4.9-1.7c1.5,0,2.7,0.3,3.8,0.9c1.1,0.6,1.9,1.5,2.5,2.7l-2.4,1.5c-0.5-0.9-1.2-1.6-1.8-2.1
		c-0.7-0.5-1.4-0.7-2.3-0.7c-1.1,0-2,0.3-2.7,1c-0.7,0.7-1,1.5-1,2.5c0,0.9,0.3,1.6,0.8,2.2c0.5,0.6,1.4,1.2,2.5,1.7L199.7,40.4z"/>
	<path id="path7593" d="M212.6,53.9V32.3h-6.9v-2.8h16.7v2.8h-6.8v21.6H212.6z"/>
</g>
</svg>
